<svg width="22" height="18" viewBox="0 0 22 18" fill="none" xmlns="http://www.w3.org/2000/svg">
<path d="M19.3665 3.36917C19.2827 3.03407 19.0456 2.78124 18.7741 2.70324C18.2918 2.5657 15.95 2.25 11 2.25C6.05 2.25 3.70869 2.56582 3.22439 2.70363C2.95546 2.78013 2.71845 3.03292 2.63353 3.36917C2.51385 3.84663 2.2 5.84544 2.2 9C2.2 12.1545 2.51385 14.1534 2.63386 14.6322C2.71731 14.966 2.95436 15.2188 3.22468 15.2964C3.70869 15.4342 6.05 15.75 11 15.75C15.95 15.75 18.2918 15.4343 18.7756 15.2964C19.0445 15.2199 19.2816 14.9671 19.3665 14.6308C19.4862 14.1534 19.8 12.15 19.8 9C19.8 5.85 19.4862 3.84663 19.3665 3.36917ZM21.4975 2.81045C22 4.815 22 9 22 9C22 9 22 13.185 21.4975 15.1895C21.2176 16.2982 20.4006 17.1695 19.3651 17.4641C17.4857 18 11 18 11 18C11 18 4.51812 18 2.63493 17.4641C1.59553 17.1655 0.77859 16.2941 0.502436 15.1895C1.96695e-07 13.185 0 9 0 9C0 9 1.96695e-07 4.815 0.502436 2.81045C0.782418 1.70182 1.59937 0.830452 2.63493 0.535905C4.51812 -1.67638e-07 11 0 11 0C11 0 17.4857 -1.67638e-07 19.3651 0.535905C20.4045 0.834547 21.2214 1.7059 21.4975 2.81045ZM8.80001 12.9375V5.0625L15.4 9L8.80001 12.9375Z" fill="#C61F1F"/>
</svg>
